<svg height="457.14286pt" viewBox="0 0 457.14286 457.14286" width="457.14286pt" xmlns="http://www.w3.org/2000/svg"><path d="m88.410156 408.410156c0 21.851563-17.734375 39.589844-39.585937 39.589844-21.945313 0-39.679688-17.738281-39.679688-39.589844 0-21.851562 17.734375-39.585937 39.679688-39.585937 21.851562 0 39.585937 17.734375 39.585937 39.585937zm0 0" fill="#7bbd91"/><path d="m48.820312 457.144531c-26.917968 0-48.820312-21.859375-48.820312-48.734375s21.902344-48.730468 48.820312-48.730468c26.875 0 48.734376 21.855468 48.734376 48.730468s-21.859376 48.734375-48.734376 48.734375zm0-79.179687c-16.839843 0-30.535156 13.660156-30.535156 30.445312s13.695313 30.445313 30.535156 30.445313c16.785157 0 30.449219-13.660157 30.449219-30.445313s-13.664062-30.445312-30.449219-30.445312zm0 0" fill="#2a3d4f"/><path d="m268.25 408.410156c0 21.851563-17.734375 39.589844-39.679688 39.589844-21.851562 0-39.585937-17.738281-39.585937-39.589844 0-21.851562 17.734375-39.585937 39.585937-39.585937 21.945313 0 39.679688 17.734375 39.679688 39.585937zm0 0" fill="#ffd766"/><path d="m228.570312 457.144531c-26.875 0-48.730468-21.859375-48.730468-48.734375s21.855468-48.730468 48.730468-48.730468c26.921876 0 48.824219 21.855468 48.824219 48.730468s-21.902343 48.734375-48.824219 48.734375zm0-79.179687c-16.785156 0-30.445312 13.660156-30.445312 30.445312s13.660156 30.445313 30.445312 30.445313c16.839844 0 30.535157-13.660157 30.535157-30.445313s-13.695313-30.445312-30.535157-30.445312zm0 0" fill="#2a3d4f"/><path d="m448 408.410156c0 21.851563-17.738281 39.589844-39.589844 39.589844-21.851562 0-39.585937-17.738281-39.585937-39.589844 0-21.851562 17.734375-39.585937 39.585937-39.585937 21.851563 0 39.589844 17.734375 39.589844 39.585937zm0 0" fill="#4b6981"/><path d="m408.410156 457.144531c-26.875 0-48.730468-21.859375-48.730468-48.734375s21.855468-48.730468 48.730468-48.730468 48.734375 21.855468 48.734375 48.730468-21.859375 48.734375-48.734375 48.734375zm0-79.179687c-16.785156 0-30.445312 13.660156-30.445312 30.445312s13.660156 30.445313 30.445312 30.445313 30.445313-13.660157 30.445313-30.445313-13.660157-30.445312-30.445313-30.445312zm0 0" fill="#2a3d4f"/><path d="m317.667969 98.285156c0 49.1875-39.863281 89.050782-89.140625 89.050782-49.191406 0-89.054688-39.863282-89.054688-89.050782s39.863282-89.140625 89.054688-89.140625c49.277344 0 89.140625 39.953125 89.140625 89.140625zm0 0" fill="#eb675e"/><g fill="#2a3d4f"><path d="m228.527344 196.480469c-54.144532 0-98.195313-44.050781-98.195313-98.195313 0-54.195312 44.050781-98.285156 98.195313-98.285156 54.195312 0 98.285156 44.089844 98.285156 98.285156 0 54.144532-44.089844 98.195313-98.285156 98.195313zm0-178.195313c-44.0625 0-79.910156 35.882813-79.910156 80 0 44.0625 35.847656 79.910156 79.910156 79.910156 44.117187 0 80-35.847656 80-79.910156 0-44.117187-35.882813-80-80-80zm0 0"/><path d="m228.570312 377.964844c-5.050781 0-9.140624-4.089844-9.140624-9.144532v-181.480468c0-5.054688 4.089843-9.144532 9.140624-9.144532 5.054688 0 9.144532 4.089844 9.144532 9.144532v181.480468c0 5.054688-4.089844 9.144532-9.144532 9.144532zm0 0"/><path d="m408.410156 377.964844c-5.054687 0-9.140625-4.089844-9.140625-9.144532v-77.589843c0-15.988281-16.742187-29-37.324219-29h-266.695312c-20.582031 0-37.332031 13.011719-37.332031 29v77.589843c0 5.054688-4.085938 9.144532-9.140625 9.144532-5.054688 0-9.144532-4.089844-9.144532-9.144532v-77.589843c0-26.070313 24.949219-47.285157 55.617188-47.285157h266.695312c30.660157 0 55.609376 21.214844 55.609376 47.285157v77.589843c0 5.054688-4.089844 9.144532-9.144532 9.144532zm0 0"/></g></svg>